# Blender 4.2.3 LTS
# www.blender.org
mtllib no_melterns_no_tools_sand_form_full.mtl
o cube
v 0.500000 0.500000 -0.187500
v 0.500000 0.500000 -0.500000
v 0.500000 -0.500000 -0.187500
v 0.500000 -0.500000 -0.500000
v -0.500000 0.500000 -0.500000
v -0.500000 0.500000 -0.187500
v -0.500000 -0.500000 -0.500000
v -0.500000 -0.500000 -0.187500
vn -0.0000 -0.0000 -1.0000
vn 1.0000 -0.0000 -0.0000
vn -0.0000 -0.0000 1.0000
vn -1.0000 -0.0000 -0.0000
vn -0.0000 1.0000 -0.0000
vn -0.0000 -1.0000 -0.0000
vt 0.000000 0.000000
vt 1.000000 0.000000
vt 1.000000 1.000000
vt 0.000000 1.000000
vt 0.687500 0.000000
vt 0.687500 1.000000
vt 0.312500 0.000000
vt 0.312500 1.000000
vt 0.000000 0.687500
vt 1.000000 0.687500
vt 1.000000 0.312500
vt 0.000000 0.312500
s 0
g cube_m_af52dd2a-670e-9095-58ca-afc09657750e
usemtl m_af52dd2a-670e-9095-58ca-afc09657750e
f 4/1/1 7/2/1 5/3/1 2/4/1
f 3/5/2 4/2/2 2/3/2 1/6/2
f 8/1/3 3/2/3 1/3/3 6/4/3
f 7/1/4 8/7/4 6/8/4 5/4/4
f 6/9/5 1/10/5 2/3/5 5/4/5
f 7/1/6 4/2/6 3/11/6 8/12/6
o cube.001
v 0.500000 0.500000 0.500000
v 0.500000 0.500000 0.187500
v 0.500000 -0.500000 0.500000
v 0.500000 -0.500000 0.187500
v -0.500000 0.500000 0.187500
v -0.500000 0.500000 0.500000
v -0.500000 -0.500000 0.187500
v -0.500000 -0.500000 0.500000
vn -0.0000 -0.0000 -1.0000
vn 1.0000 -0.0000 -0.0000
vn -0.0000 -0.0000 1.0000
vn -1.0000 -0.0000 -0.0000
vn -0.0000 1.0000 -0.0000
vn -0.0000 -1.0000 -0.0000
vt 0.000000 0.000000
vt 1.000000 0.000000
vt 1.000000 1.000000
vt 0.000000 1.000000
vt 0.312500 0.000000
vt 0.312500 1.000000
vt 0.687500 0.000000
vt 0.687500 1.000000
vt 1.000000 0.312500
vt 0.000000 0.312500
vt 0.000000 0.687500
vt 1.000000 0.687500
s 0
g cube.001_m_af52dd2a-670e-9095-58ca-afc09657750e
usemtl m_af52dd2a-670e-9095-58ca-afc09657750e
f 12/13/7 15/14/7 13/15/7 10/16/7
f 11/13/8 12/17/8 10/18/8 9/16/8
f 16/13/9 11/14/9 9/15/9 14/16/9
f 15/19/10 16/14/10 14/15/10 13/20/10
f 14/13/11 9/14/11 10/21/11 13/22/11
f 15/23/12 12/24/12 11/15/12 16/16/12
o cube.002
v -0.312500 0.500000 0.187500
v -0.312500 0.500000 -0.187500
v -0.312500 -0.500000 0.187500
v -0.312500 -0.500000 -0.187500
v -0.500000 0.500000 -0.187500
v -0.500000 0.500000 0.187500
v -0.500000 -0.500000 -0.187500
v -0.500000 -0.500000 0.187500
vn -0.0000 -0.0000 -1.0000
vn 1.0000 -0.0000 -0.0000
vn -0.0000 -0.0000 1.0000
vn -1.0000 -0.0000 -0.0000
vn -0.0000 1.0000 -0.0000
vn -0.0000 -1.0000 -0.0000
vt 0.812500 0.000000
vt 1.000000 0.000000
vt 1.000000 1.000000
vt 0.812500 1.000000
vt 0.312500 0.000000
vt 0.687500 0.000000
vt 0.687500 1.000000
vt 0.312500 1.000000
vt 0.000000 0.000000
vt 0.187500 0.000000
vt 0.187500 1.000000
vt 0.000000 1.000000
vt 0.000000 0.312500
vt 0.187500 0.312500
vt 0.187500 0.687500
vt 0.000000 0.687500
s 0
g cube.002_m_af52dd2a-670e-9095-58ca-afc09657750e
usemtl m_af52dd2a-670e-9095-58ca-afc09657750e
f 20/25/13 23/26/13 21/27/13 18/28/13
f 19/29/14 20/30/14 18/31/14 17/32/14
f 24/33/15 19/34/15 17/35/15 22/36/15
f 23/29/16 24/30/16 22/31/16 21/32/16
f 22/37/17 17/38/17 18/39/17 21/40/17
f 23/37/18 20/38/18 19/39/18 24/40/18
o cube.003
v 0.312500 0.375000 0.187500
v 0.312500 0.375000 -0.187500
v 0.312500 -0.500000 0.187500
v 0.312500 -0.500000 -0.187500
v -0.312500 0.375000 -0.187500
v -0.312500 0.375000 0.187500
v -0.312500 -0.500000 -0.187500
v -0.312500 -0.500000 0.187500
vn -0.0000 -0.0000 -1.0000
vn 1.0000 -0.0000 -0.0000
vn -0.0000 -0.0000 1.0000
vn -1.0000 -0.0000 -0.0000
vn -0.0000 1.0000 -0.0000
vn -0.0000 -1.0000 -0.0000
vt 0.187500 0.125000
vt 0.812500 0.125000
vt 0.812500 1.000000
vt 0.187500 1.000000
vt 0.312500 0.125000
vt 0.687500 0.125000
vt 0.687500 1.000000
vt 0.312500 1.000000
vt 0.187500 0.312500
vt 0.812500 0.312500
vt 0.812500 0.687500
vt 0.187500 0.687500
s 0
g cube.003_m_af52dd2a-670e-9095-58ca-afc09657750e
usemtl m_af52dd2a-670e-9095-58ca-afc09657750e
f 28/41/19 31/42/19 29/43/19 26/44/19
f 27/45/20 28/46/20 26/47/20 25/48/20
f 32/41/21 27/42/21 25/43/21 30/44/21
f 31/45/22 32/46/22 30/47/22 29/48/22
f 30/49/23 25/50/23 26/51/23 29/52/23
f 31/49/24 28/50/24 27/51/24 32/52/24
o cube.004
v 0.500000 0.500000 0.187500
v 0.500000 0.500000 -0.187500
v 0.500000 -0.500000 0.187500
v 0.500000 -0.500000 -0.187500
v 0.312500 0.500000 -0.187500
v 0.312500 0.500000 0.187500
v 0.312500 -0.500000 -0.187500
v 0.312500 -0.500000 0.187500
vn -0.0000 -0.0000 -1.0000
vn 1.0000 -0.0000 -0.0000
vn -0.0000 -0.0000 1.0000
vn -1.0000 -0.0000 -0.0000
vn -0.0000 1.0000 -0.0000
vn -0.0000 -1.0000 -0.0000
vt 0.000000 0.000000
vt 0.187500 0.000000
vt 0.187500 1.000000
vt 0.000000 1.000000
vt 0.312500 0.000000
vt 0.687500 0.000000
vt 0.687500 1.000000
vt 0.312500 1.000000
vt 0.812500 0.000000
vt 1.000000 0.000000
vt 1.000000 1.000000
vt 0.812500 1.000000
vt 0.812500 0.312500
vt 1.000000 0.312500
vt 1.000000 0.687500
vt 0.812500 0.687500
s 0
g cube.004_m_af52dd2a-670e-9095-58ca-afc09657750e
usemtl m_af52dd2a-670e-9095-58ca-afc09657750e
f 36/53/25 39/54/25 37/55/25 34/56/25
f 35/57/26 36/58/26 34/59/26 33/60/26
f 40/61/27 35/62/27 33/63/27 38/64/27
f 39/57/28 40/58/28 38/59/28 37/60/28
f 38/65/29 33/66/29 34/67/29 37/68/29
f 39/65/30 36/66/30 35/67/30 40/68/30
o cube.005
v 0.312500 0.562500 0.187500
v 0.312500 0.562500 -0.187500
v 0.312500 0.437500 0.187500
v 0.312500 0.437500 -0.187500
v -0.312500 0.562500 -0.187500
v -0.312500 0.562500 0.187500
v -0.312500 0.437500 -0.187500
v -0.312500 0.437500 0.187500
vn -0.0000 -0.0000 -1.0000
vn 1.0000 -0.0000 -0.0000
vn -0.0000 -0.0000 1.0000
vn -1.0000 -0.0000 -0.0000
vn -0.0000 1.0000 -0.0000
vn -0.0000 -1.0000 -0.0000
vt 0.187500 0.875000
vt 0.812500 0.875000
vt 0.812500 1.000000
vt 0.187500 1.000000
vt 0.312500 0.875000
vt 0.687500 0.875000
vt 0.687500 1.000000
vt 0.312500 1.000000
vt 0.187500 0.312500
vt 0.812500 0.312500
vt 0.812500 0.687500
vt 0.187500 0.687500
s 0
g cube.005_m_d214e32d-b78a-10ed-cc13-50eb7b88c1ef
usemtl m_d214e32d-b78a-10ed-cc13-50eb7b88c1ef
f 44/69/31 47/70/31 45/71/31 42/72/31
f 43/73/32 44/74/32 42/75/32 41/76/32
f 48/69/33 43/70/33 41/71/33 46/72/33
f 47/73/34 48/74/34 46/75/34 45/76/34
f 46/77/35 41/78/35 42/79/35 45/80/35
f 47/77/36 44/78/36 43/79/36 48/80/36
